<mxfile host="app.diagrams.net" agent="Mozilla/5.0 (Windows NT 10.0; Win64; x64) AppleWebKit/537.36 (KHTML, like Gecko) Chrome/129.0.0.0 Safari/537.36" version="24.7.17">
  <diagram name="Página-1" id="4Yli1zMMpEZErpbqlIOZ">
    <mxGraphModel dx="1035" dy="541" grid="1" gridSize="10" guides="1" tooltips="1" connect="1" arrows="1" fold="1" page="1" pageScale="1" pageWidth="827" pageHeight="1169" math="0" shadow="0">
      <root>
        <mxCell id="0" />
        <mxCell id="1" parent="0" />
        <mxCell id="5SxU84tmNdesvVeLwSL2-1" value="¿QUIERO CHOCOLATE?" style="ellipse;whiteSpace=wrap;html=1;" vertex="1" parent="1">
          <mxGeometry x="280" y="40" width="120" height="80" as="geometry" />
        </mxCell>
        <mxCell id="5SxU84tmNdesvVeLwSL2-2" value="" style="endArrow=classic;html=1;rounded=0;" edge="1" parent="1" target="gO6qomgcmFq3ITzGljTb-1">
          <mxGeometry width="50" height="50" relative="1" as="geometry">
            <mxPoint x="300" y="140" as="sourcePoint" />
            <mxPoint x="270" y="170" as="targetPoint" />
            <Array as="points">
              <mxPoint x="320" y="120" />
            </Array>
          </mxGeometry>
        </mxCell>
        <mxCell id="gO6qomgcmFq3ITzGljTb-1" value="SI" style="rounded=0;whiteSpace=wrap;html=1;" vertex="1" parent="1">
          <mxGeometry x="210" y="140" width="120" height="60" as="geometry" />
        </mxCell>
        <mxCell id="gO6qomgcmFq3ITzGljTb-20" value="" style="edgeStyle=orthogonalEdgeStyle;rounded=0;orthogonalLoop=1;jettySize=auto;html=1;" edge="1" parent="1" source="gO6qomgcmFq3ITzGljTb-2" target="gO6qomgcmFq3ITzGljTb-19">
          <mxGeometry relative="1" as="geometry" />
        </mxCell>
        <mxCell id="gO6qomgcmFq3ITzGljTb-2" value="NO" style="rounded=0;whiteSpace=wrap;html=1;" vertex="1" parent="1">
          <mxGeometry x="370" y="140" width="120" height="60" as="geometry" />
        </mxCell>
        <mxCell id="gO6qomgcmFq3ITzGljTb-3" value="" style="endArrow=classic;html=1;rounded=0;exitX=0.909;exitY=0.828;exitDx=0;exitDy=0;exitPerimeter=0;" edge="1" parent="1">
          <mxGeometry width="50" height="50" relative="1" as="geometry">
            <mxPoint x="379.08000000000004" y="116.23999999999995" as="sourcePoint" />
            <mxPoint x="400" y="140" as="targetPoint" />
            <Array as="points">
              <mxPoint x="384" y="120" />
            </Array>
          </mxGeometry>
        </mxCell>
        <mxCell id="gO6qomgcmFq3ITzGljTb-6" value="" style="endArrow=classic;html=1;rounded=0;" edge="1" parent="1">
          <mxGeometry width="50" height="50" relative="1" as="geometry">
            <mxPoint x="269.76" y="200" as="sourcePoint" />
            <mxPoint x="269.76" y="260" as="targetPoint" />
          </mxGeometry>
        </mxCell>
        <mxCell id="gO6qomgcmFq3ITzGljTb-7" value="&lt;b&gt;&lt;span style=&quot;font-size:12.0pt;line-height:107%;&lt;br/&gt;font-family:&amp;quot;Arial&amp;quot;,sans-serif;mso-fareast-font-family:Aptos;mso-fareast-theme-font:&lt;br/&gt;minor-latin;mso-ansi-language:ES-MX;mso-fareast-language:EN-US;mso-bidi-language:&lt;br/&gt;AR-SA&quot;&gt;Reunir los ingredientes&amp;nbsp;&lt;/span&gt;&lt;/b&gt;" style="rounded=0;whiteSpace=wrap;html=1;" vertex="1" parent="1">
          <mxGeometry x="210" y="260" width="120" height="60" as="geometry" />
        </mxCell>
        <mxCell id="gO6qomgcmFq3ITzGljTb-8" value="" style="endArrow=classic;html=1;rounded=0;" edge="1" parent="1">
          <mxGeometry width="50" height="50" relative="1" as="geometry">
            <mxPoint x="269.76" y="320" as="sourcePoint" />
            <mxPoint x="269.76" y="360" as="targetPoint" />
          </mxGeometry>
        </mxCell>
        <mxCell id="gO6qomgcmFq3ITzGljTb-9" value="&lt;span style=&quot;font-size:12.0pt;line-height:107%;&lt;br/&gt;font-family:&amp;quot;Arial&amp;quot;,sans-serif;mso-fareast-font-family:Aptos;mso-fareast-theme-font:&lt;br/&gt;minor-latin;mso-ansi-language:ES-MX;mso-fareast-language:EN-US;mso-bidi-language:&lt;br/&gt;AR-SA&quot;&gt;Agregar la pasta de chocolate a la olleta.&lt;/span&gt;" style="rounded=0;whiteSpace=wrap;html=1;" vertex="1" parent="1">
          <mxGeometry x="210" y="360" width="120" height="60" as="geometry" />
        </mxCell>
        <mxCell id="gO6qomgcmFq3ITzGljTb-10" value="" style="endArrow=classic;html=1;rounded=0;" edge="1" parent="1" target="gO6qomgcmFq3ITzGljTb-11">
          <mxGeometry width="50" height="50" relative="1" as="geometry">
            <mxPoint x="269.76" y="420" as="sourcePoint" />
            <mxPoint x="269.76" y="460" as="targetPoint" />
          </mxGeometry>
        </mxCell>
        <mxCell id="gO6qomgcmFq3ITzGljTb-13" value="" style="edgeStyle=orthogonalEdgeStyle;rounded=0;orthogonalLoop=1;jettySize=auto;html=1;" edge="1" parent="1" source="gO6qomgcmFq3ITzGljTb-11" target="gO6qomgcmFq3ITzGljTb-12">
          <mxGeometry relative="1" as="geometry" />
        </mxCell>
        <mxCell id="gO6qomgcmFq3ITzGljTb-11" value="&lt;span style=&quot;font-size:12.0pt;line-height:107%;&lt;br/&gt;font-family:&amp;quot;Arial&amp;quot;,sans-serif;mso-fareast-font-family:Aptos;mso-fareast-theme-font:&lt;br/&gt;minor-latin;mso-ansi-language:ES-MX;mso-fareast-language:EN-US;mso-bidi-language:&lt;br/&gt;AR-SA&quot;&gt;Verter el agua en la olleta.&lt;/span&gt;" style="rounded=0;whiteSpace=wrap;html=1;" vertex="1" parent="1">
          <mxGeometry x="210" y="460" width="120" height="60" as="geometry" />
        </mxCell>
        <mxCell id="gO6qomgcmFq3ITzGljTb-15" value="" style="edgeStyle=orthogonalEdgeStyle;rounded=0;orthogonalLoop=1;jettySize=auto;html=1;" edge="1" parent="1" source="gO6qomgcmFq3ITzGljTb-12" target="gO6qomgcmFq3ITzGljTb-14">
          <mxGeometry relative="1" as="geometry" />
        </mxCell>
        <mxCell id="gO6qomgcmFq3ITzGljTb-12" value="&lt;span style=&quot;font-size:12.0pt;line-height:107%;&lt;br/&gt;font-family:&amp;quot;Arial&amp;quot;,sans-serif;mso-fareast-font-family:Aptos;mso-fareast-theme-font:&lt;br/&gt;minor-latin;mso-ansi-language:ES-MX;mso-fareast-language:EN-US;mso-bidi-language:&lt;br/&gt;AR-SA&quot;&gt;colocar al fuego la olleta a que el chocolate se prepare.&lt;/span&gt;" style="whiteSpace=wrap;html=1;rounded=0;" vertex="1" parent="1">
          <mxGeometry x="400" y="455" width="130" height="70" as="geometry" />
        </mxCell>
        <mxCell id="gO6qomgcmFq3ITzGljTb-18" value="" style="edgeStyle=orthogonalEdgeStyle;rounded=0;orthogonalLoop=1;jettySize=auto;html=1;" edge="1" parent="1" source="gO6qomgcmFq3ITzGljTb-14" target="gO6qomgcmFq3ITzGljTb-17">
          <mxGeometry relative="1" as="geometry" />
        </mxCell>
        <mxCell id="gO6qomgcmFq3ITzGljTb-14" value="&lt;span style=&quot;font-size:12.0pt;line-height:107%;&lt;br/&gt;font-family:&amp;quot;Arial&amp;quot;,sans-serif;mso-fareast-font-family:Aptos;mso-fareast-theme-font:&lt;br/&gt;minor-latin;mso-ansi-language:ES-MX;mso-fareast-language:EN-US;mso-bidi-language:&lt;br/&gt;AR-SA&quot;&gt;revolver el chocolate caliente con el batidor.&lt;/span&gt;" style="whiteSpace=wrap;html=1;rounded=0;" vertex="1" parent="1">
          <mxGeometry x="625" y="455" width="125" height="70" as="geometry" />
        </mxCell>
        <mxCell id="gO6qomgcmFq3ITzGljTb-22" value="" style="edgeStyle=orthogonalEdgeStyle;rounded=0;orthogonalLoop=1;jettySize=auto;html=1;" edge="1" parent="1" source="gO6qomgcmFq3ITzGljTb-17" target="gO6qomgcmFq3ITzGljTb-21">
          <mxGeometry relative="1" as="geometry" />
        </mxCell>
        <mxCell id="gO6qomgcmFq3ITzGljTb-17" value="&lt;span style=&quot;font-size:12.0pt;line-height:107%;&lt;br/&gt;font-family:&amp;quot;Arial&amp;quot;,sans-serif;mso-fareast-font-family:Aptos;mso-fareast-theme-font:&lt;br/&gt;minor-latin;mso-ansi-language:ES-MX;mso-fareast-language:EN-US;mso-bidi-language:&lt;br/&gt;AR-SA&quot;&gt;Agregar azúcar o leche al gusto.&lt;/span&gt;" style="whiteSpace=wrap;html=1;rounded=0;" vertex="1" parent="1">
          <mxGeometry x="832.5" y="460" width="120" height="60" as="geometry" />
        </mxCell>
        <mxCell id="gO6qomgcmFq3ITzGljTb-19" value="fFIN DEL PROCESO" style="ellipse;whiteSpace=wrap;html=1;rounded=0;" vertex="1" parent="1">
          <mxGeometry x="390" y="270" width="80" height="80" as="geometry" />
        </mxCell>
        <mxCell id="gO6qomgcmFq3ITzGljTb-26" value="" style="edgeStyle=orthogonalEdgeStyle;rounded=0;orthogonalLoop=1;jettySize=auto;html=1;" edge="1" parent="1" source="gO6qomgcmFq3ITzGljTb-21" target="gO6qomgcmFq3ITzGljTb-25">
          <mxGeometry relative="1" as="geometry" />
        </mxCell>
        <mxCell id="gO6qomgcmFq3ITzGljTb-21" value="&lt;span style=&quot;font-size:12.0pt;line-height:107%;&lt;br/&gt;font-family:&amp;quot;Arial&amp;quot;,sans-serif;mso-fareast-font-family:Aptos;mso-fareast-theme-font:&lt;br/&gt;minor-latin;mso-ansi-language:ES-MX;mso-fareast-language:EN-US;mso-bidi-language:&lt;br/&gt;AR-SA&quot;&gt;Servir el chocolate en la taza.&lt;/span&gt;" style="whiteSpace=wrap;html=1;rounded=0;" vertex="1" parent="1">
          <mxGeometry x="832.5" y="600" width="120" height="60" as="geometry" />
        </mxCell>
        <mxCell id="gO6qomgcmFq3ITzGljTb-25" value="&lt;span style=&quot;font-size:12.0pt;line-height:107%;&lt;br/&gt;font-family:&amp;quot;Arial&amp;quot;,sans-serif;mso-fareast-font-family:Aptos;mso-fareast-theme-font:&lt;br/&gt;minor-latin;mso-ansi-language:ES-MX;mso-fareast-language:EN-US;mso-bidi-language:&lt;br/&gt;AR-SA&quot;&gt;Disfrutar del chocolate.&lt;/span&gt;" style="ellipse;whiteSpace=wrap;html=1;rounded=0;" vertex="1" parent="1">
          <mxGeometry x="652.5" y="590" width="80" height="80" as="geometry" />
        </mxCell>
      </root>
    </mxGraphModel>
  </diagram>
</mxfile>
